<svg height="478" width="720" xmlns="http://www.w3.org/2000/svg">
<rect height="478" fill="#555" width="720"></rect>
<text fill="#7f7" font-family="Courier New" font-size="12" xml:space="preserve">
<tspan x="10" y="26">15 megabytes installed</tspan>
<tspan x="10" y="42"></tspan>
<tspan x="10" y="58">node_modules</tspan>
<tspan x="10" y="74">└─┬ babel-plugin-macros@1.0.15 </tspan>
<tspan x="10" y="90">  ├─┬ babel-traverse@6.24.1 </tspan>
<tspan x="10" y="106">  │ ├─┬ babel-code-frame@6.22.0 </tspan>
<tspan x="10" y="122">  │ │ ├─┬ chalk@1.1.3 </tspan>
<tspan x="10" y="138">  │ │ │ ├── ansi-styles@2.2.1 </tspan>
<tspan x="10" y="154">  │ │ │ ├── escape-string-regexp@1.0.5 </tspan>
<tspan x="10" y="170">  │ │ │ ├─┬ has-ansi@2.0.0 </tspan>
<tspan x="10" y="186">  │ │ │ │ └── ansi-regex@2.1.1 </tspan>
<tspan x="10" y="202">  │ │ │ ├── strip-ansi@3.0.1 </tspan>
<tspan x="10" y="218">  │ │ │ └── supports-color@2.0.0 </tspan>
<tspan x="10" y="234">  │ │ └── js-tokens@3.0.1 </tspan>
<tspan x="10" y="250">  │ ├── babel-messages@6.23.0 </tspan>
<tspan x="10" y="266">  │ ├─┬ babel-runtime@6.23.0 </tspan>
<tspan x="10" y="282">  │ │ ├── core-js@2.4.1 </tspan>
<tspan x="10" y="298">  │ │ └── regenerator-runtime@0.10.3 </tspan>
<tspan x="10" y="314">  │ ├── babylon@6.17.0 </tspan>
<tspan x="10" y="330">  │ ├─┬ debug@2.6.4 </tspan>
<tspan x="10" y="346">  │ │ └── ms@0.7.3 </tspan>
<tspan x="10" y="362">  │ ├── globals@9.17.0 </tspan>
<tspan x="10" y="378">  │ ├─┬ invariant@2.2.2 </tspan>
<tspan x="10" y="394">  │ │ └── loose-envify@1.3.1 </tspan>
<tspan x="10" y="410">  │ └── lodash@4.17.4 </tspan>
<tspan x="10" y="426">  └─┬ babel-types@6.24.1 </tspan>
<tspan x="10" y="442">    ├── esutils@2.0.2 </tspan>
<tspan x="10" y="458">    └── to-fast-properties@1.0.2</tspan>
</text>
</svg>
